Enjoy it! High Quality Brazilian Music!!!


Format                           : AVI
Format/Info                      : Audio Video Interleave
File size                        : 61.2 MiB
Duration                         : 3mn 18s
Overall bit rate                 : 2 591 Kbps
Writing application              : MEncoder SVN-r30881(20100311-gcc4.3.3)
Writing library                  : MPlayer

Video
ID                               : 0
Format                           : MPEG-4 Visual
Format profile                   : Advanced Simple@L5
Format settings, BVOP            : Yes
Format settings, QPel            : No
Format settings, GMC             : No warppoints
Format settings, Matrix          : Default (H.263)
Codec ID                         : XVID
Codec ID/Hint                    : XviD
Duration                         : 3mn 18s
Bit rate                         : 2 393 Kbps
Width                            : 720 pixels
Height                           : 480 pixels
Display aspect ratio             : 16:9
Frame rate                       : 29.970 fps
Standard                         : NTSC
Color space                      : YUV
Chroma subsampling               : 4:2:0
Bit depth                        : 8 bits
Scan type                        : Progressive
Compression mode                 : Lossy
Bits/(Pixel*Frame)               : 0.231
Stream size                      : 56.5 MiB (92%)
Writing library                  : XviD 1.2.1 (UTC 2008-12-04)

Audio
ID                               : 1
Format                           : AC-3
Format/Info                      : Audio Coding 3
Mode extension                   : CM (complete main)
Codec ID                         : 2000
Duration                         : 3mn 17s
Bit rate mode                    : Constant
Bit rate                         : 192 Kbps
Channel(s)                       : 2 channels
Channel positions                : Front: L R
Sampling rate                    : 48.0 KHz
Bit depth                        : 16 bits
Compression mode                 : Lossy
Video delay                      : 33ms
Stream size                      : 4.53 MiB (7%)
Alignment                        : Split accross interleaves
Interleave, duration             : 500 ms (15.00 video frames)
Interleave, preload duration     : 500 ms

Playlist:


01  Arthur Danni . Disco Voador

02  Israel e Rodolffo . Chorar por amor

03  João Bosco & Vinícius . Tarde Demais

04  Gusttavo Lima . 60 Segundos

05  João Neto e Frederico . Chora

06  Dablio . Se Quer A Verdade

07  Hugo e Tiago . O amor de antes

08  Gusttavo Lima . Fora Do Comum

09  Hugo & Gabriel . E Aí

10  Nashville . Onde está você

11  Mauricio e Eduardo . Quem vai chorar

12  Gusttavo Lima . Tsunami

13  Munhoz e Mariano . Sexto sentido

14  Cristiano Araujo . Você vai ficar em mim

15  Matheus & Kauan . Sete Mares

16  Jorge e Matheus . Chove chove

17  Arthur Danni . Ataque de bobeira

18  Gusttavo Lima . Eu Vou Tentando te Agarrar

19  João Neto e Frederico . Lê Lê Lê

20  Israel e Rodolffo . Eu você e o nosso amor

21  Diego Torres & Tiago . Me Beija

22  Edinho . Minha Mulher Não Deixa Não

23  Ze Ricardo e Thiago . Copo de vinho

24  Jorge e Matheus . Seu Astral

25  Gusttavo Lima . Chora Chora

26  Humberto e Ronaldo . E deixe o tempo ver

27  Gusttavo Lima . O Amor Não Foi Feito Pra Dividir


Enjoy it! High Quality Brazilian Music!!!